# xmcd
#
# Track frame offsets:
#	150
#	26914
#	47969
#	71469
#	92179
#	109602
#	126240
#	143900
#	163113
#	193230
#	225214
#	251749
#	290365
#	313463
#	335997
#
# Disc length: 4770 seconds
#
# Revision: 1
# Processed by: cddbd v1.5.2PL0 Copyright (c) Steve Scherf et al.
# Submitted via: EZCDAudioConverter 2.1.7.1
#
DISCID=eb12a00f
DTITLE=Fine Young Cannibals - The Raw and The Cooked 2/2
DYEAR=2013
DGENRE=
TTITLE0=She Drives Me Crazy [The Monie Love Remix]
TTITLE1=Good Thing [Nothing Like The Single Mix]
TTITLE2=I'm Not The Man I Used To Be [Jazzie B and Nellee Hooper Remix]
TTITLE3=I'm Not Satisfied [Matt Dike 12'' Remix]
TTITLE4=The Flame
TTITLE5=Since You've Been Gone
TTITLE6=Trust
TTITLE7=Take What I Can Get
TTITLE8=I'm Not The Man I Used To Be [Jazzie B and Norman Cook Remix]
TTITLE9=She Drives Me Crazy [David Z 12'' Version]
TTITLE10=Don't Look Back [12'' Version]
TTITLE11=I'm Not The Man I Used To Be [Monster Mix]
TTITLE12=Good Thing [Prince Paul Remix]
TTITLE13=The Flame [Beatmasters Full Fat Mix]
TTITLE14=I'm Not The Man I Used To Be [12'' Mellow Mix]
EXTD=
EXTT0=
EXTT1=
EXTT2=
EXTT3=
EXTT4=
EXTT5=
EXTT6=
EXTT7=
EXTT8=
EXTT9=
EXTT10=
EXTT11=
EXTT12=
EXTT13=
EXTT14=
PLAYORDER=
